<svg xmlns="http://www.w3.org/2000/svg" xmlns:xlink="http://www.w3.org/1999/xlink" width="690" height="412.245" viewBox="0 0 690 412.245"><defs><style>.a{fill:#c598f4;}.b{fill:#cbc2ff;}.c{fill:#4f2269;}.d{fill:#eab9bf;}.e{fill:#dcdaf2;}.f{fill:#221e50;}.g{fill:#b9c0d6;}.h{fill:#b7451d;}.i{fill:#c5592d;}.j{fill:#e5a8b5;}.k{fill:#ddbbef;}.l{fill:#f9a231;}.m{fill:#333383;}.n{fill:#e09139;}.o{fill:url(#a);}.p{fill:#2b295e;}.q{fill:url(#b);}.r{fill:#d35c2b;}.s{fill:#f06532;}.t{fill:#555ca5;}.u{fill:#f28b6b;}.v{fill:#9a62cc;}.w{fill:#703699;}.x{fill:url(#c);}.y{fill:#b2aaf9;}.z{fill:#de8f39;opacity:0.2;}</style><linearGradient id="a" x1="0.499" y1="1.001" x2="0.499" gradientUnits="objectBoundingBox"><stop offset="0" stop-color="#f9a231"/><stop offset="0.72" stop-color="#f06532"/></linearGradient><linearGradient id="b" x1="0.494" y1="1" x2="0.494" y2="0" xlink:href="#a"/><linearGradient id="c" x1="0.499" y1="1" x2="0.499" y2="-0.002" xlink:href="#a"/></defs><g transform="translate(0.003)"><g transform="translate(-0.003)"><ellipse class="a" cx="333.081" cy="37.494" rx="333.081" ry="37.494" transform="translate(23.833 337.257)"/><path class="b" d="M416.611,193.57a15.574,15.574,0,0,1-6.709-4.489c-4.135-4.553-9.139-6.613-12.614-4.714-4.65,2.542-4.827,11.134-.451,19.195s22.525,19.613,24.279,18.76,3.475-19.42,1.142-23.7a10.394,10.394,0,0,0-5.647-5.052Z" transform="translate(239.725 111.838)"/><path class="b" d="M429.879,244.629H410.3a3.958,3.958,0,0,1-3.926-3.3L401.32,212h37.52l-5.052,29.363A3.958,3.958,0,0,1,429.879,244.629Z" transform="translate(244.381 129.093)"/><path class="c" d="M401.07,189.44a62.858,62.858,0,0,1,6.436,8.431,83.3,83.3,0,0,1,5.165,9.3A89.283,89.283,0,0,1,416.789,217c1.223,3.395,2.317,6.693,3.475,10.04l-1.834.579c-1-3.379-1.947-6.806-2.993-10.152s-2.269-6.661-3.636-9.895a83.207,83.207,0,0,0-4.7-9.444,63.2,63.2,0,0,0-6.033-8.688Z" transform="translate(244.229 115.356)"/><path class="a" d="M426.329,198.82c.949-9.654-1.255-17.795-4.956-18.165-3.218-.322-6.629,5.6-8.045,13.692a5.84,5.84,0,0,1-2.092,3.636c-2.237,1.738-3.314,5.631-2.494,9.814,1.062,5.245,7.015,10.426,7.015,10.426S425.412,208.361,426.329,198.82Z" transform="translate(248.734 109.999)"/><path class="c" d="M417.624,184c-1.352,7.079-2.462,14.223-3.218,21.383-.354,3.572-.6,7.16-.692,10.764a76.71,76.71,0,0,0,.418,10.716l-1.255.129a82.072,82.072,0,0,1-.1-10.892c.193-3.6.547-7.208,1-10.8C414.825,198.175,416.064,191.079,417.624,184Z" transform="translate(251.277 112.043)"/><path class="a" d="M431.114,206.28c3.684-4.827,5.181-9.879,3.331-11.263s-5.358.8-8.769,4.65a3.7,3.7,0,0,1-2.3,1.255,6.307,6.307,0,0,0-4.553,4.408c-1.175,3.121.306,7.819.306,7.819S427.429,211.043,431.114,206.28Z" transform="translate(254.762 118.498)"/><path class="c" d="M433.14,196.39c-3.041,3.314-5.969,6.758-8.7,10.329q-2.059,2.671-3.91,5.5a50.826,50.826,0,0,0-3.3,5.84l-.708-.354a50.934,50.934,0,0,1,3.523-5.824c1.287-1.85,2.671-3.652,4.087-5.406C426.946,202.971,430,199.624,433.14,196.39Z" transform="translate(253.637 119.588)"/><rect class="a" width="41.559" height="10.426" rx="1.37" transform="translate(643.69 335.784)"/><path class="d" d="M307.3,154.557h0a2,2,0,0,0-.434,0A77.66,77.66,0,0,1,298,153.64s2.124,8.946,3.3,9.284c3.218.933,5.824,3.717,8.479,4.36a3.218,3.218,0,0,0,3.974-2.542h0a2.429,2.429,0,0,0,.113-.6h0a3.218,3.218,0,0,0-.338-1.8l-3.137-6.082A3.218,3.218,0,0,0,307.3,154.557Z" transform="translate(181.466 93.556)"/><path class="a" d="M297.127,152.84,302.6,154l1.11,10.249-6.758-.032Z" transform="translate(180.827 93.069)"/><path class="e" d="M314.043,176.732l-.177,11.359s-9.654.386-19.307,0c-8.527-.338-17.071-1.271-19.066-3.54-2.3-2.606-3.942-22.622-4.988-40.722-.9-15.832-1.335-30.2-1.335-30.2s7.3,3.427,8.608,4.312c5.535,3.749,13.756,51.9,13.756,51.9S311.372,175.67,314.043,176.732Z" transform="translate(163.911 69.193)"/><path class="f" d="M316.07,227.266l2.172,8.27h22.525S335.12,224.627,316.07,227.266Z" transform="translate(192.469 138.139)"/><path class="g" d="M259.273,246.629a6.436,6.436,0,0,1-4.087,1.078c-3.218,0-4.087-1.078-4.087-1.078V201h8.173Z" transform="translate(152.907 122.395)"/><path class="h" d="M324.7,214.306v.1a42.307,42.307,0,0,1-1.174,5.663,33.786,33.786,0,0,1-3.3,8.045c-4.425,7.449-12.871,15.751-32.919,18.454-.965.129-1.979.257-3.009.354-1.866.193-3.845.338-5.921.434h-.788a98.146,98.146,0,0,1-19.693-2.944c-14.979-3.556-24.745-10.876-30.924-19.774h0c-.515-.756-1.014-1.512-1.5-2.3a47.721,47.721,0,0,1-3.218-6.243,65.6,65.6,0,0,1-4.827-24.649,81.624,81.624,0,0,1,2.607-19.307,34.736,34.736,0,0,1,4.827-10.6,29.836,29.836,0,0,1,1.818-2.429,27.19,27.19,0,0,1,7.4-6.227c7.144-4.071,30.7-8.141,50.633,2.381C321.319,174.614,326.837,198.539,324.7,214.306Z" transform="translate(132.404 90.473)"/><path class="g" d="M301.04,234.44H233.3a2.88,2.88,0,0,1-2.864-2.88h0a2.88,2.88,0,0,1,2.864-2.88H301.04a2.88,2.88,0,0,1,2.88,2.88h0A2.88,2.88,0,0,1,301.04,234.44Z" transform="translate(140.327 139.25)"/><path class="i" d="M321.643,194.527a27.353,27.353,0,0,1-4.473,11.263c-4.425,6.146-12.871,13-32.919,15.237-.965.113-1.979.209-3.009.29-1.866.161-3.845.29-5.921.354h-.788a98.15,98.15,0,0,1-19.693-2.944c-14.979-3.556-24.745-10.876-30.924-19.774h0c-.515-.756-1.014-1.512-1.5-2.3,11.375-2.7,35.654-7.465,59.772-5.519,13.081,1.062,26.66,2.22,38.276,3.218Z" transform="translate(135.443 116.109)"/><path class="e" d="M300.91,114.452s-6.275-1.754-6.532-1.77c.29.434-2.671,3.781-8.9,4.666a5.293,5.293,0,0,1-2.172,1.223c-7.884.4-16.894-3.765-17.827-6.291-20.5,4.022-21.9,5.921-22.428,6.436-15.462,15.9-24.456,53.9-26.065,61.139a1.834,1.834,0,0,0,.8,1.963,59.659,59.659,0,0,0,17.441,7.224,73.618,73.618,0,0,0,8.913,1.609c1.078,9.187,3.475,14.641,5.76,17.489,0,0,10.185-.145,21.286-.563,12.614-.483,28.3-.9,29.717-2.317C302.9,203.426,310.1,154.627,300.91,114.452Zm-57.648,53.4c-.37,5.116.4,2.944.386,6.79-1.464-.483-2.767-.949-3.781-1.384a5.728,5.728,0,0,1-2.333-1.319s2.4-3.588,4.666-7.739a56.491,56.491,0,0,0,2.783-5.728,26.854,26.854,0,0,0-1.721,9.38Z" transform="translate(132.106 68.371)"/><path class="j" d="M266.816,107.875s1.722,14.11,1.915,16.089l-11.423,1.77-7.5-6.194a34.592,34.592,0,0,0,2.944-17.28Z" transform="translate(152.122 62.269)"/><path class="k" d="M264.27,191.722a64.792,64.792,0,0,0-21.077,4.827c-2.285-2.848-4.827-12.582-5.969-21.769a73.63,73.63,0,0,1-8.913-1.609c1.609-5.776,3.395-11.665,4.634-15.9,1.014.434,2.317.9,3.781,1.384,0-3.845-.756-1.609-.386-6.79s1.722-12.791,4.264-13.274,3.218,11.616,4.36,22.686a73.546,73.546,0,0,0,2.413,14.126,9.653,9.653,0,0,0,1.4,2.864C253.554,184.305,265.557,188.054,264.27,191.722Z" transform="translate(139.03 84.386)"/><path class="d" d="M267.731,116.819s-16.363.756-16.669-9.444-2.623-16.99,7.8-17.875,12.582,2.928,13.515,6.307S271.979,116.368,267.731,116.819Z" transform="translate(152.623 54.42)"/><path class="l" d="M252.56,111.326s1.223-13.6,15.8-13.113,8.27-13.29-4.264-15.333c0,0,1.319,4.827-6.564,5.631C240.992,90.12,251.112,109.17,252.56,111.326Z" transform="translate(151.125 50.468)"/><path class="i" d="M255.914,116.578l7.5-.788a1.11,1.11,0,0,1,.772,1.384c-.193,1.175-2.655,4.392-3.588,4.553S253.871,118.75,255.914,116.578Z" transform="translate(155.575 70.508)"/><path class="m" d="M242.351,181.408s9.461,24.633,40.4,25.212c48.574.933,48.574,1.11,48.574,1.11s-3.7,23.507,30.763,55.428h19.4l-37.263-90.824-63.392-2.381s-44.31-1-47.8,5.116C232.279,176.389,242.351,181.408,242.351,181.408Z" transform="translate(141.882 103.453)"/><path class="n" d="M287.29,242.578a38.466,38.466,0,0,1-6.114.788h-3.6a97.082,97.082,0,0,1-19.693-2.96c-19.565-4.634-30.232-15.7-35.622-28.317a65.306,65.306,0,0,1-4.827-24.649,81.622,81.622,0,0,1,2.607-19.307,34.994,34.994,0,0,1,4.827-10.619,22.42,22.42,0,0,1,1.352-1.834l.467-.579C240.052,169.226,280.806,214.051,287.29,242.578Z" transform="translate(132.404 94.445)"/><path class="o" d="M286.264,242.358a38.465,38.465,0,0,1-6.13.788h-2.542a97.082,97.082,0,0,1-19.693-2.96c-19.565-4.634-30.232-15.7-35.622-28.317a65.307,65.307,0,0,1-4.827-24.649,81.62,81.62,0,0,1,2.606-19.307,34.994,34.994,0,0,1,4.827-10.619,22.42,22.42,0,0,1,1.352-1.834C240.1,170.182,279.86,214.25,286.264,242.358Z" transform="translate(132.417 94.664)"/><path class="a" d="M262.723,111s-1.255,5.583-4.553,8.286l5.084,6.613s6.162-7.288,5.985-12.5a41.124,41.124,0,0,0-6.516-2.4Z" transform="translate(157.212 67.591)"/><path class="e" d="M262.614,111s-.965,5.261-4.264,7.964l4.827,6s5.358-6.227,5.889-11.568a41.122,41.122,0,0,0-6.452-2.4Z" transform="translate(157.322 67.591)"/><path class="a" d="M252.572,111s7.771,7.369,12.871,7.964l-3.475,8.688s-15.14-8.978-15.188-14.352A22.526,22.526,0,0,1,252.572,111Z" transform="translate(150.277 67.591)"/><path class="e" d="M252.934,110.86s7.208,7.659,12.292,8.254l-2.816,8.045s-15.253-8.576-15.3-13.966a22.848,22.848,0,0,1,5.824-2.333Z" transform="translate(150.478 67.506)"/><path class="e" d="M234.378,149.142s22.605,6.162,24.681,8.64l-.177,11.359s-23.619,1.5-40.706-9.187a1.4,1.4,0,0,1,0-2.365C222.3,154.967,232.19,148.917,234.378,149.142Z" transform="translate(132.463 90.814)"/><path class="k" d="M293.017,179.9c-8.527-.338-17.537-.933-19.066-3.54-5.149-8.785-.1-31.165-1.126-49.265,8.157,16.62,2.108,29.862,3.668,38.534S285.777,178.125,293.017,179.9Z" transform="translate(165.388 77.389)"/><path class="p" d="M315.54,190.751a10.877,10.877,0,0,1-2.735-.949,11.1,11.1,0,0,0-2.494-.885c-9.654-1.4-18.374-3.121-26.081-4.634l-5.937-1.158c-17.553-3.379-27.5-5.245-27.593-5.245h0c.1,0,10.12,1.271,27.69,4.65l5.937,1.158c7.707,1.512,16.427,3.218,26.049,4.634a11.039,11.039,0,0,1,2.671.933,10.878,10.878,0,0,0,2.558.9C318.179,190.51,318.114,191.105,315.54,190.751Z" transform="translate(152.664 108.317)"/><path class="p" d="M287.2,154.487l-.225-.627a.581.581,0,0,1,0-.145V153.2Z" transform="translate(174.748 93.288)"/><path class="p" d="M286.822,153.16v.515a.581.581,0,0,0,0,.145l.225.627.113.306Z" transform="translate(174.656 93.264)"/><path class="p" d="M286.82,153.16v.1Z" transform="translate(174.658 93.264)"/><path class="p" d="M324.377,243.681h-.161c-5.937-10.6-12.341-23.41-18.277-37.005-.9-2.076-1.834-4.215-2.735-6.436s-2-4.827-2.96-7.144a8.351,8.351,0,0,1-.483-2.2h0l.515-.772h0a10.78,10.78,0,0,0,.515,2.671c.965,2.365,1.963,4.827,2.96,7.128s1.818,4.3,2.735,6.436C312.406,220.046,318.44,233.095,324.377,243.681Z" transform="translate(182.538 115.77)"/><path class="q" d="M258.913,119.062S257.5,132.5,257.3,137c-.708,12.646-.965,50.649-.965,50.649a8.576,8.576,0,0,0,1.834,5.969,33.788,33.788,0,0,0,4.521,4.457,16.862,16.862,0,0,0,4.553-8.189c.853-3.556-1.207-33.4-3.218-53.272a178.575,178.575,0,0,0-2.767-17.827S259.428,118.5,258.913,119.062Z" transform="translate(156.083 72.288)"/><path class="d" d="M259.279,163.318l-2.832-5.486a2.944,2.944,0,0,0-2.751-1.609h0c-.145,0-8.366-.772-8.366-.772s4.36,10.925,5.149,11.745a1.48,1.48,0,0,0,1.078.467c1.915,0,7.578-.129,7.932-2.236a2.587,2.587,0,0,0,.1-.531h0a2.864,2.864,0,0,0-.306-1.577Z" transform="translate(149.394 94.658)"/><path class="k" d="M243.407,154.51l5.486,1.142L250,165.9l-6.774-.032Z" transform="translate(148.115 94.086)"/><path class="d" d="M125.93,164.811h0l-.193.145a45.405,45.405,0,0,1-4.537,1.609s.274,3.733.354,3.781l10.41-.451-.451-1.609a2.344,2.344,0,0,0,0-.322h0a1.786,1.786,0,0,0-.6-.788l-2.993-2.22a1.77,1.77,0,0,0-2-.145Z" transform="translate(73.807 100.212)"/><path class="d" d="M117.91,216.483l1.561,12.244,6.355.193,4.119-17.73Z" transform="translate(71.804 128.6)"/><path class="r" d="M118.859,219l-.949,6.806,17.923,8.254S134.965,223.956,118.859,219Z" transform="translate(71.804 133.356)"/><path class="d" d="M142.24,230.038l8.64,8.817,5.181-3.7-7.433-16.6Z" transform="translate(86.619 133.082)"/><path class="r" d="M145.31,229.151l1.979,6.564h19.742S161.979,226.786,145.31,229.151Z" transform="translate(88.488 139.294)"/><path class="g" d="M93.483,246.84a6.436,6.436,0,0,1-4.183,1.11c-3.347,0-4.2-1.11-4.2-1.11v-46.9h8.383Z" transform="translate(51.825 121.75)"/><path class="g" d="M136.378,234.289H66.84a2.96,2.96,0,0,1-2.96-2.944h0a2.96,2.96,0,0,1,2.96-2.944h69.538a2.961,2.961,0,0,1,2.96,2.944h0a2.96,2.96,0,0,1-2.96,2.944Z" transform="translate(38.903 139.08)"/><path class="i" d="M158.349,189.953a38.728,38.728,0,0,1-4.585,14.062c-4.537,7.659-13.161,16.17-33.788,18.953-1,.145-2.027.257-3.089.37-1.931.193-3.942.338-6.082.434H110a100.445,100.445,0,0,1-20.224-3.025c-15.381-3.652-25.405-11.166-31.744-20.3h0a48.559,48.559,0,0,1-3.652-7.176c10.538-3.218,37.1-10.088,63.472-7.514C131.689,187.154,146.105,188.65,158.349,189.953Z" transform="translate(33.118 112.767)"/><path class="s" d="M127.813,157.368c-4.682-4.65-4.071-40.738-4.135-42.942-.145-6.436-2.558-9.026-2.558-9.026-1.239-3.379-21.367-5.1-26.4,7.787-3.218,8.254-11.536,24.327-11.536,24.327-33.788,46.965-20.4,70.149-20.4,70.149l1.448-.161a7.594,7.594,0,0,1-.37-4.634l1.368,4.6,25.019-3.218a74.976,74.976,0,0,1,2.108-12.308l.129,12.727,3.347.177c-1.319-26.821,4.376-40,6.066-43.264-1.448,14.915,5.76,39.242,5.76,39.242l1.046-.241-2.349-12.147,2.993,12,2.912-.66c-.467-1.609-.885-3.218-1.271-4.746.788,2.977,1.271,4.746,1.271,4.746,6.227-6.774,17.7-6.178,17.7-6.178C136.1,184.881,127.813,157.368,127.813,157.368Z" transform="translate(36.64 62.701)"/><path class="j" d="M98.551,121.035s-1.947,11.263,5.068,16.6l-6.677,11.729L84.65,134.888a80.929,80.929,0,0,0,1.223-17.7Z" transform="translate(51.551 71.361)"/><path class="d" d="M102.87,132.333s-15.22,2.783-16.813-6.725-4.618-15.558,5.036-17.7,12.164,1.142,13.467,4.183S106.8,131.368,102.87,132.333Z" transform="translate(51.351 65.292)"/><path class="s" d="M111.693,108.872s-18.969,14.609-17.3,25.405c1.609,10.152-1.4,11.053-3.62,12.019-5.728,2.446-13.241-2.027-16.218-2.027-2.108.1,3.33-2.446,6.79-7.063,9.2-12.292,8.3-28.961,10.136-30.087C104,99.025,111.693,108.872,111.693,108.872Z" transform="translate(45.118 63.284)"/><path class="e" d="M135.362,191.712a104.583,104.583,0,0,1-17.859-2.478c-13-3.652-14.915-5.342-16.813-17.988a160.49,160.49,0,0,1-1-34.174c0-.917.129-1.77.193-2.526.257-2.816.467-4.457.467-4.457a13.6,13.6,0,0,1,9.01,11.021c1.609,10.522,2.816,30.312,3.958,33.932.644,2.076,21.27,12.566,21.27,12.566l.6,3.218Z" transform="translate(60.417 79.216)"/><path class="a" d="M135.362,189.069a104.583,104.583,0,0,1-17.859-2.478c-13-3.652-14.915-5.342-16.813-17.988a160.49,160.49,0,0,1-1-34.174c2.011.869,4.006,3.781,4.956,11.1,2.365,17.94-1.754,29.106,5.6,34.254,6.13,4.3,19.4,7.3,24.938,8.334Z" transform="translate(60.417 81.859)"/><path class="e" d="M127.568,145.183a4.828,4.828,0,0,1-.338-.644,10.571,10.571,0,0,1-.885-3.218,54.575,54.575,0,0,0-2.8-10.024l-8.4-3.3c.113.177,4.119,6.532-6.114,6.436-3.974,0-5.631-3.62-6.774-6.307l-12.55,2.96s-6.934,1.287-8.527,3.926c-11.681,19.372-18.647,37.2-20.015,42.862a3.218,3.218,0,0,0,1.014,2.928c2.092,1.609,3.684,1.979,10.378,3.218,1.126.209,2.22.37,3.218.483a40.868,40.868,0,0,0,11.037-.193c-2.236,7.385-5.519,15.14-5.519,15.14a13.144,13.144,0,0,0,3.684,1.416c.644.161,26.451,4.376,27.352,4.553,3.218.644,14.641-5.7,14.641-5.7s-7.385-9.09-1.48-28.3C128.4,161.9,130.4,150.01,127.568,145.183ZM79.3,174.772a34.383,34.383,0,0,0-5.1-1.062c10.619-14.834,11.616-15.751,11.713-15.864h0c.129.5,2.993,11.472,2.993,16.427a22.9,22.9,0,0,1-.129,3.395,89.6,89.6,0,0,0-9.509-2.9Z" transform="translate(37.223 77.943)"/><path class="k" d="M91.348,174.373c-1.416,5.293-4.408,12.55-9.187,14.9a15.381,15.381,0,0,1-4.827,1.11,13.145,13.145,0,0,1-3.684-1.416s8.045-16.379,7.53-25.132a143.761,143.761,0,0,0-2.993-16.427c.628-1.191,1.48-2.285,2.462-2.236C82.869,145.267,92.764,169.031,91.348,174.373Z" transform="translate(44.852 88.398)"/><path class="t" d="M75.354,172.641c-.9,1.9-12.871,23.41,6.983,29.138s62.748,4.183,62.748,4.183,4.553,18,10.168,25.9c9.09,12.711,25.18,27.03,25.18,27.03h18.342s-31.825-68.975-38.293-73.673c-4.746-3.443-28.542-9.525-41.7-11.568-3.218-.5-22.605-1.094-27.8-1.287C82.835,172.013,75.853,171.6,75.354,172.641Z" transform="translate(43.213 104.723)"/><path class="m" d="M100.68,176.368s40.513-12.389,48.268-7.932c13.74,7.9-9.782,78.146-9.782,78.146L125.6,244.41s-2.526-19-.515-31.76c1.175-7.417,5.454-26.531,5.454-26.531s-10.345-4.2-13.917-5.245C112.12,179.586,100.68,176.368,100.68,176.368Z" transform="translate(61.312 101.977)"/><path class="d" d="M83.278,160.611h-.241a17.8,17.8,0,0,1-3.218-1.271l-.676,3.7c0,.1-.434,1.271,0,1.931,3.218,4.183,4.264,3.62,4.264,3.62l2.059-1.754a1.74,1.74,0,0,0,.129-.306h0a1.689,1.689,0,0,0,0-.981l-.9-3.62a1.8,1.8,0,0,0-1.416-1.319Z" transform="translate(48.08 97.027)"/><path class="m" d="M147.328,193.608a10.827,10.827,0,0,1-2.816-.965,10.875,10.875,0,0,0-2.558-.9c-9.895-1.448-18.857-3.218-26.773-4.827l-6.1-1.191c-18.02-3.475-28.237-5.374-28.333-5.374h0c.1,0,10.394,1.287,28.43,4.827l6.1,1.207c7.916,1.609,16.862,3.314,26.757,4.827a10.99,10.99,0,0,1,2.719.949,10.779,10.779,0,0,0,2.639.917C150,193.366,149.934,193.978,147.328,193.608Z" transform="translate(49.176 109.821)"/><path class="m" d="M112.08,150.86Z" transform="translate(68.254 91.863)"/><path class="m" d="M150.636,243.789h-.161C144.361,232.9,137.8,219.751,131.7,205.8c-.933-2.14-1.866-4.344-2.8-6.548s-2.059-4.827-3.041-7.337a8.575,8.575,0,0,1-.5-2.253h0l.531-.8h0a10.57,10.57,0,0,0,.531,2.751c.981,2.429,2.011,4.827,3.025,7.321s1.882,4.408,2.816,6.532C138.344,219.494,144.555,232.88,150.636,243.789Z" transform="translate(76.34 115.003)"/><path class="m" d="M112.1,150.91Z" transform="translate(68.266 91.894)"/><path class="e" d="M64.488,156.633s5.68-1.882,17.586,1.786c9.654,2.993,8.576,2.848,8.576,2.848l-.853,5.052a38.888,38.888,0,0,1-24.134-.917s-5.647-1.239-4.36-5.213S64.488,156.633,64.488,156.633Z" transform="translate(37.217 95.085)"/><rect class="c" width="559.184" height="109.311" transform="translate(86.485 265.023)"/><path class="a" d="M666.251,232.653H19.123a2,2,0,1,0,0,3.974H666.251a2,2,0,1,0,0-3.974Z" transform="translate(10.325 141.665)"/><rect class="c" width="583.366" height="8.141" transform="translate(78.327 258.233)"/><path class="r" d="M103.865,138.57h51.277l-11.2,35.284H91.75Z" transform="translate(55.874 84.38)"/><path class="r" d="M290.431,138.57h51.261L328.37,173.854H278.3Z" transform="translate(169.47 84.38)"/><path class="e" d="M114.86,124.71h19.806a28,28,0,0,1,9.959,25.743l-22.058,1.609S127.41,137.919,114.86,124.71Z" transform="translate(69.946 75.94)"/><path class="j" d="M152.1,121.369a131.161,131.161,0,0,0,6.436,17.7L167,136.155a86.044,86.044,0,0,1-1.3-18.985Z" transform="translate(92.623 71.348)"/><path class="j" d="M201.96,171.63s-61.4,8.334-69.538,21.56c0,0-4.038,5.953,2.269,23.056s22.364,45.05,22.364,45.05h9.139s-14.03-54.285-14.48-56.634c0,0,46.257,5.406,52.387-3.507s-2.108-29.6-2.108-29.6Z" transform="translate(79.865 104.462)"/><path class="d" d="M188.887,171.6s-59.53,8.334-67.575,21.56c0,0-4.038,5.953,2.269,23.056s22.364,45.05,22.364,45.05h9.139s-14.03-54.285-14.48-56.634c0,0,46.257,5.406,52.4-3.507S190.77,171.6,190.77,171.6Z" transform="translate(73.1 104.493)"/><path class="d" d="M170.022,130.018c-4.827,2.413-29.83,26.885-29.83,26.885s-12.469-16.524-14.384-19.919a1.609,1.609,0,0,1-.1-.563,7.5,7.5,0,0,0-3.942-5.712c-2.429-1.48-1.609-1.319-3.347-2.4s-2.076,1.609-2.076,1.609a7.707,7.707,0,0,0,4.666,7.964,1.175,1.175,0,0,1,.676,1.078s7.047,27.577,18.5,33.144c0,0,28.719-16.829,29.83-25.6s10.233-18.5,10.233-18.5A22.525,22.525,0,0,0,170.022,130.018Z" transform="translate(70.823 77.937)"/><path class="l" d="M200.806,233.4c-7.8,5.776-63.2,2.478-63.2,2.478.579-1.3.354-4.376-.209-8.045C136.192,220.121,133.36,210,133.36,210c11.681-4.634,41.832-9.525,42.057-11.359.241-1.448-9.219-18.471-14.207-26.8h0a44.565,44.565,0,0,0-2.8-4.376c-1.85-2.156-.772-10.812-1.094-11.262h0c-.386-.338-5.374,4.7-5.374,4.7-.5-4.248-8.318-16.2-8.318-16.2s14.223-13.016,16.331-14.255c2.96-1.738,19.484-4.3,31.036-4.956,6.564-.37,8.173,8.913,8.72,19.838.434,8.35.225,17.7,1.142,24.359,2.108,15.446,13.579,31.76,14.255,41.993S208.61,227.683,200.806,233.4Z" transform="translate(81.212 76.405)"/><path class="d" d="M151.973,132.938s16.3,2.977,18-7.208,4.939-16.652-5.39-18.985-13.016,1.207-14.48,4.473S147.774,131.893,151.973,132.938Z" transform="translate(90.674 64.542)"/><path class="c" d="M187.331,168.48l-3.331.209-.965-3.684v3.733l-11.6.708a168.332,168.332,0,0,0-1.609-18.117c.338,4.666.756,14.046.531,18.294l-3.395.08s-3.99-39.258-10.651-43.924c-10.555-7.385-6.677-13.74-6.677-13.74,3.475-9.09,18.1-8.865,23.362-4.344C183.276,116.48,187.331,168.48,187.331,168.48Z" transform="translate(90.697 63.721)"/><path class="t" d="M161.74,132.62a9.651,9.651,0,0,1,.241,1.609C161.837,133.312,161.74,132.7,161.74,132.62Z" transform="translate(98.493 80.756)"/><path class="u" d="M199.278,225.883c-7.8,5.776-63.2,2.478-63.2,2.478.579-1.3.354-4.376-.209-8.045,11.134,0,43.441-.434,51.647-2.236,9.911-2.188,9.654-25.984,3.717-39.049s6.838-39.741,6.9-41.221c.434,8.35.225,17.7,1.142,24.359,2.108,15.446,13.579,31.76,14.255,41.993S207.081,220.171,199.278,225.883Z" transform="translate(82.74 83.917)"/><path class="u" d="M152.134,160.682a44.561,44.561,0,0,0-2.8-4.376c-1.85-2.156-.772-10.812-1.094-11.263h0a2.784,2.784,0,0,1,2.542-1.158C153.5,144.159,149.624,156.386,152.134,160.682Z" transform="translate(90.256 87.608)"/><path class="i" d="M163.554,227.034l-2.3,9.364H138.31S144.247,223.768,163.554,227.034Z" transform="translate(84.226 137.92)"/><path class="r" d="M152.874,227.034l-2.317,9.364H127.63S133.5,223.768,152.874,227.034Z" transform="translate(77.722 137.92)"/><path class="g" d="M215.736,250.42a3.218,3.218,0,0,1-3.137,3.137H138.587a3.137,3.137,0,1,1,0-6.275h33.144v-48.7h8.913v48.7H212.6A3.218,3.218,0,0,1,215.736,250.42Z" transform="translate(82.484 120.922)"/><path class="v" d="M250.553,165.824c-3.829,23.877-9.4,58.292-10.345,62.861-1.448,7.1-15.494,6.951-49.41,6.339q-8.543-.145-15.317-.193h-8.913c-15.735,0-21.914.483-21.914.483s-9.509-17.521,46.144-11.777c6.307.66,9.074-31.068,10.265-55.782a28,28,0,0,1,29.8-26.612,21.27,21.27,0,0,1,19.677,24.681Z" transform="translate(87.713 85.91)"/><path class="a" d="M155.936,34.656V0h-7.1V34.656H55.7v72.193H246.053V34.656Z" transform="translate(33.922)"/><rect class="b" width="183.869" height="65.467" transform="translate(93.049 37.729)"/><rect class="a" width="31.085" height="52.403" transform="translate(101.222 43.634)"/><rect class="a" width="130.71" height="6.597" transform="translate(139.949 43.634)"/><rect class="a" width="130.71" height="6.597" transform="translate(139.949 55.894)"/><rect class="a" width="130.71" height="6.597" transform="translate(139.949 69.844)"/><path class="a" d="M381.6,34.656V0h-7.1V34.656H281.38v72.193H471.717V34.656Z" transform="translate(171.346)"/><rect class="b" width="183.869" height="65.467" transform="translate(456.137 37.729)"/><rect class="a" width="31.085" height="52.403" transform="translate(464.31 43.634)"/><rect class="a" width="130.71" height="6.597" transform="translate(503.053 43.634)"/><rect class="a" width="130.71" height="6.597" transform="translate(503.053 55.894)"/><rect class="a" width="130.71" height="6.597" transform="translate(503.053 69.844)"/><path class="a" d="M254.055,34.656V0h-7.1V34.656H190.84v72.193H310.384V34.656Z" transform="translate(116.213)"/><rect class="b" width="113.076" height="65.467" transform="translate(310.464 37.729)"/><path class="w" d="M250.553,165.436c-3.829,23.877-9.4,58.292-10.345,62.861-1.448,7.1-15.494,6.951-49.41,6.339-5.7-.1-46.144.273-46.144.273s-9.509-17.521,46.144-11.777c19.677,4.489,15.253-57.471,22.654-70.391,5.213-9.09,16.234-11.021,22.525-11.021a21.351,21.351,0,0,1,14.577,23.716Z" transform="translate(87.713 86.298)"/><path class="x" d="M390.564,213.39h-13.37v-3.652a3.218,3.218,0,0,0-3.218-3.218H356.535a3.218,3.218,0,0,0-3.218,3.218v3.668h-13.37a3.7,3.7,0,0,0-3.717,3.7v27.738a3.7,3.7,0,0,0,3.717,3.717H390.6a3.717,3.717,0,0,0,3.717-3.7V217.107a3.733,3.733,0,0,0-3.749-3.717Zm-34.061-3.7h17.409v3.652H356.5Z" transform="translate(204.745 125.756)"/><rect class="i" width="58.082" height="1.094" transform="translate(540.932 352.131) rotate(0.07)"/><path class="y" d="M433.518,167.65S357.9,195,357,197.093l-28.333,67.479c-7.739,2.526-10.394,7.659-10.394,7.659h23.474l1.931-7.369h5.1c28.961-26.853,32.082-47.994,32.179-55.17a2.784,2.784,0,0,1,2.7-2.751c4.569-.145-4.167-.451,27.127-1.046,32.179-.611,42.717-30.264,42.717-30.264Z" transform="translate(193.809 102.087)"/><path class="f" d="M331.143,227.452l-2.253,8.624H305.4S311.273,224.7,331.143,227.452Z" transform="translate(185.972 138.242)"/><path class="b" d="M456.932,179.6s-9.863,25.743-42.122,26.29c-31.294.6-43.248.9-47.834,1.046a2.783,2.783,0,0,0-2.7,2.751c-.113,7.176-3.218,28.317-32.179,55.17h-20.3l32.4-80.913c.885-2.14,72.563-16.3,72.563-16.3Z" transform="translate(189.863 102.087)"/><path class="p" d="M348.281,189.368a11.263,11.263,0,0,0,2.864-1,11.164,11.164,0,0,1,2.59-.917c10.056-1.464,19.162-3.218,27.207-4.827l6.194-1.207c18.294-3.524,28.671-5.454,28.784-5.47h0c-.113,0-10.571,1.319-28.88,4.827l-6.21,1.207c-8.045,1.609-17.135,3.379-27.159,4.827a10.635,10.635,0,0,0-2.783.965,10.828,10.828,0,0,1-2.671.933C345.578,189.111,345.643,189.739,348.281,189.368Z" transform="translate(210.859 107.141)"/><path class="p" d="M322.45,244.538h.177c6.194-11.053,12.871-24.408,19.066-38.614.933-2.156,1.9-4.408,2.848-6.645s2.076-4.972,3.089-7.449a8.817,8.817,0,0,0,.5-2.285h0a8.685,8.685,0,0,1-.531-.8h0a10.7,10.7,0,0,1-.531,2.783c-1,2.478-2.043,4.988-3.073,7.449s-1.915,4.473-2.864,6.629C334.935,219.889,328.644,233.5,322.45,244.538Z" transform="translate(196.354 114.93)"/><path class="j" d="M372.232,126.454a51.068,51.068,0,0,1-6.162-12.1l11.262-6.645c3.974,8.334,13.306,14.577,13.306,14.577S372.28,126.518,372.232,126.454Z" transform="translate(222.916 65.588)"/><path class="d" d="M365.944,123.406s17.7.8,18.036-10.217,2.832-18.358-8.447-19.307-13.612,3.218-14.609,6.806S361.343,122.907,365.944,123.406Z" transform="translate(219.598 57.084)"/><path class="c" d="M360.885,101.761a10.522,10.522,0,0,1,7.868,8.045c1.947,6.967,10.3,13.9,12.871,13.563,0,0,15.3-20.643-.273-29.122C369.815,87.892,359.083,95.325,360.885,101.761Z" transform="translate(219.638 55.914)"/><path class="d" d="M328.054,163.13c.981-2.767,1.963-6.87,1.963-6.87a77.711,77.711,0,0,1-8.849.917h-.451a3.218,3.218,0,0,0-3.073,1.754l-2.2,4.264Z" transform="translate(192.086 95.152)"/><path class="s" d="M437.682,131.759c-.724-1.11-1.448-2.2-2.156-3.218-3.749-5.6-5.631-8.978-8.447-11.44-5.744-5.036-16.8-3.7-16.829-3.7h0s-4.441,1.609-6.532,2.076a74.438,74.438,0,0,0-8.3,2.51c-.29,0-17.167,4.682-18.712,10.909-2.623,10.555-19.549,45.581-19.549,45.581s-25.308,5.615-32.629,8.222l-1.5,6.661h42.685s12.968-13.081,20.4-24.6l.08.225c1.609,4.827,3.331,9.541,4.666,14.014,3.507,11.906,6.355,22.38,13.306,23.78,4.328.885,8.045,1.609,11.263,2.252,24.987,4.827,20.691,1.432,25.5-17.232a48.878,48.878,0,0,0,.434-21.511c1.432-.531,2.816-1.094,4.1-1.609a23.444,23.444,0,0,0,4.618-2.751C454.415,158.579,445.389,143.423,437.682,131.759Z" transform="translate(196.708 68.956)"/><path class="z" d="M407.809,156.434a23.443,23.443,0,0,1-4.521,2.59c-5.728-12.437-9.364-29.154-10.828-36.764.965,1.271,1.963,2.623,2.993,4.006C403.111,137.931,412.137,153.087,407.809,156.434Z" transform="translate(238.986 74.448)"/><path class="z" d="M391.554,187.238c-3.218-.611-6.983-1.368-11.263-2.253-6.951-1.4-9.8-11.874-13.306-23.78-1.335-4.473-2.993-9.251-4.666-14.014a6.581,6.581,0,0,1,4.28-4.827C371.764,140.933,391.49,177.987,391.554,187.238Z" transform="translate(220.632 86.666)"/><path class="g" d="M418.835,247.282H387.027v-48.7h-8.914v48.7h-33.08a3.138,3.138,0,0,0-.113,6.275h74.011a3.138,3.138,0,1,0-.1-6.275Z" transform="translate(208.138 120.922)"/><path class="v" d="M456.818,166.317c-3.845,23.86-9.332,57.922-10.265,62.378-1.11,5.406-9.493,6.613-28.333,6.613-5.953,0-12.952-.129-21.093-.273-33.9-.611-46.144.273-46.144.273s-9.493-17.521,46.144-11.777c6.355.66,9.107-31.455,10.281-56.232a27.545,27.545,0,0,1,29.25-26.177,21.785,21.785,0,0,1,20.1,25.2Z" transform="translate(213.355 85.899)"/><path class="w" d="M456.818,165.018c-3.845,23.86-9.332,57.922-10.265,62.378-1.11,5.406-9.493,6.613-28.333,6.613H350.983s-9.493-17.521,46.144-11.777c20.787,4.264,16.475-54.221,16.942-59.08s9.316-16.974,19.307-19.468,19.79,5.422,19.79,5.422h0A21.721,21.721,0,0,1,456.818,165.018Z" transform="translate(213.355 87.198)"/><path class="b" d="M28.812,244.08h18.1a3.668,3.668,0,0,0,3.62-3.057L55.2,213.88H20.51l4.666,27.143a3.684,3.684,0,0,0,3.636,3.057Z" transform="translate(12.494 130.238)"/><path class="b" d="M13.819,155.528a58.276,58.276,0,0,0,14.03-26.74c5.422-22.364,18.165-38.067,33-38.067,19.79,0,35.815,27.867,35.815,62.266s-38.614,104.581-46.176,105.1c-6.645.386-46.176-57.616-46.176-75.861C4.31,171.263,8.059,161.545,13.819,155.528Z" transform="translate(2.629 55.242)"/><path class="c" d="M34.485,117.47c-1.335,6.436-2.333,13-3.057,19.565s-1.207,13.145-1.416,19.742a311.268,311.268,0,0,0,1.191,39.5c1.175,13.113,3.057,26.177,5.486,39.113,1.158,6.436,2.606,12.871,3.942,19.388l4.071,19.4-4.73.917L36.48,255.581c-1.126-6.516-2.381-13-3.363-19.581-2-13.1-3.6-26.306-4.328-39.548a311.938,311.938,0,0,1,0-39.741c.4-6.613,1.062-13.209,2.027-19.758S32.957,123.89,34.485,117.47Z" transform="translate(17.15 71.531)"/><path class="a" d="M5.166,192.6c-7.111-19.42-6.854-37.375.579-40.095,6.613-2.413,16.652,8.045,23.8,24.005a12.373,12.373,0,0,0,6.259,6.436c5.5,2.4,9.814,9.863,10.329,18.953.66,11.343-8.9,25.132-8.9,25.132S12.181,211.79,5.166,192.6Z" transform="translate(0.003 92.652)"/><path class="c" d="M6.9,158.93c6.951,13.708,13.435,27.658,19.13,41.961,2.832,7.144,5.47,14.384,7.787,21.737a167.461,167.461,0,0,1,5.567,22.525l-2.639.386a165.223,165.223,0,0,0-4.827-22.348c-2.076-7.353-4.5-14.625-7.128-21.833C19.514,186.958,13.5,172.831,6.9,158.93Z" transform="translate(4.206 96.777)"/><path class="c" d="M46.913,169.71c-2.188,5.406-4.119,10.925-5.9,16.556s-3.363,11.166-4.666,16.829a152.1,152.1,0,0,0-3.073,17.119,89.1,89.1,0,0,0-.418,17.183l-3.218.241a92.047,92.047,0,0,1,1.223-17.7,159.108,159.108,0,0,1,3.91-17.183c1.609-5.647,3.459-11.262,5.47-16.685S44.468,175,46.913,169.71Z" transform="translate(18.028 103.342)"/><rect class="a" width="38.437" height="9.637" rx="1.37" transform="translate(69.559 348.881) rotate(180)"/><path class="c" d="M252.308,51.17V45.8h-3.475a14.384,14.384,0,0,0-12-9.654V32.378h4.087V29.16h-7.288v6.886A14.384,14.384,0,0,0,221.609,45.7H218.15v5.374Z" transform="translate(132.843 17.756)"/><path class="c" d="M256.241,44.83V66.309h-3.218V44.83h-3.636V66.309h-3.218v-3.62H232.075v3.62h-3.218V44.83h-3.62V66.309h-3.218V44.83h-8.045V66.309H211.69v3.218h54.7V66.309h-2.269V44.83Z" transform="translate(128.909 27.298)"/><path class="c" d="M224.38,44.83h14.094V59.487H224.38Z" transform="translate(136.636 27.298)"/></g></g></svg>